<?xml version="1.0" encoding="UTF-8"?><svg id="Layer_1" xmlns="http://www.w3.org/2000/svg" viewBox="0 0 154.14 137.36"><defs><style>.cls-1{fill:#faad2e;}.cls-1,.cls-2,.cls-3,.cls-4,.cls-5,.cls-6{fill-rule:evenodd;}.cls-2{fill:#37a5dd;}.cls-3{fill:#2d3487;}.cls-4{fill:#2a70b8;}.cls-5{fill:#e40487;}.cls-6{fill:#e92036;}</style></defs><path class="cls-1" d="m121.72,86.1l11.22,51.27-63.38-24.9c-1.12-.45-2.24-.9-3.25-1.46,2.58,1.12,5.27,2.02,8.08,2.58,15.26,3.03,29.5-4.04,38.37-15.59l8.97-11.89Z"/><path class="cls-5" d="m88.85,39.54l65.29,4.15-32.53,42.29-2.8-12.68c-3.7-17.05-15.37-30.96-31.3-33.88l1.35.11Z"/><path class="cls-3" d="m82.68,39.54c-5.27,12.23-18.51,17.84-32.31,16.38,6.96-9.98,19.07-15.71,32.31-16.38Z"/><path class="cls-6" d="m44.65,69.27c1.01-5.05,2.92-9.54,5.61-13.35,13.8,1.46,27.04-4.15,32.31-16.38,1.68-.11,3.25-.11,4.94,0,15.93,2.92,27.6,16.72,31.3,33.88l2.8,12.68-8.97,11.78c-8.86,11.55-23.11,18.62-38.37,15.59-2.8-.56-5.61-1.46-8.08-2.58-5.95-2.92-11.11-7.07-15.03-12.23-5.95-8.08-8.64-18.62-6.51-29.39h0Zm36.57-10.88c-10.32,0-18.62,8.3-18.62,18.62s8.3,18.62,18.62,18.62,18.62-8.3,18.62-18.62c.11-10.21-8.3-18.62-18.62-18.62Z"/><path class="cls-2" d="m83.91,35.95c-.34,1.23-.79,2.47-1.35,3.7-13.24.67-25.24,6.39-32.31,16.38,1.57.11-1.23-.11-1.35-.22L0,48.96,34.33,10.6C41.62,2.41,52.84-2.08,64.06.95c15.14,4.15,24.01,19.74,19.86,35h0Zm-13.01-13.24c-2.69-7.18-10.77-10.66-17.84-7.97-7.18,2.69-10.66,10.77-7.97,17.84,2.69,7.18,10.77,10.66,17.84,7.97,7.18-2.69,10.66-10.77,7.97-17.84Z"/><path class="cls-4" d="m84.81,30.9l39.49-22.77-2.24,33.54-33.09-2.13c-2.13-.11-4.15-.11-6.28,0,.45-1.12.9-2.36,1.35-3.7.34-1.57.67-3.25.79-4.94Z"/></svg>