<?xml version="1.0" encoding="UTF-8" standalone="no"?>
<!DOCTYPE svg PUBLIC "-//W3C//DTD SVG 1.1//EN" "http://www.w3.org/Graphics/SVG/1.1/DTD/svg11.dtd">
<!-- Created with Vectornator (http://vectornator.io/) -->
<svg height="100%" stroke-miterlimit="10" style="fill-rule:nonzero;clip-rule:evenodd;stroke-linecap:round;stroke-linejoin:round;" version="1.1" viewBox="0 0 250 250" width="100%" xml:space="preserve" xmlns="http://www.w3.org/2000/svg" xmlns:xlink="http://www.w3.org/1999/xlink">
<defs/>
<g id="Untitled">
<g opacity="1">
<g opacity="1">
<path d="M7.10543e-15 150L250 150L250 150L250 250L250 250L7.10543e-15 250L7.10543e-15 250L7.10543e-15 150L7.10543e-15 150Z" fill="#0038a8" fill-rule="nonzero" opacity="1" stroke="none"/>
<path d="M7.10543e-15 100L250 100L250 100L250 150L250 150L7.10543e-15 150L7.10543e-15 150L7.10543e-15 100" fill="#734f96" fill-rule="nonzero" opacity="1" stroke="none"/>
<path d="M7.10543e-15 0L125 0L250 0L250 0L250 0L250 50L250 100L250 100L250 100L125 100L7.10543e-15 100L7.10543e-15 100L7.10543e-15 100L7.10543e-15 50L7.10543e-15 0" fill="#d70270" fill-rule="nonzero" opacity="1" stroke="none"/>
</g>
</g>
</g>
</svg>
